<svg class="icon" style="width: 1em;height: 1em;vertical-align: middle;fill: currentColor;overflow: hidden;" viewBox="0 0 1024 1024" version="1.1" xmlns="http://www.w3.org/2000/svg" p-id="7372"><path d="M510.5152 510.8224m-450.816 0a450.816 450.816 0 1 0 901.632 0 450.816 450.816 0 1 0-901.632 0Z" fill="#FF5C64" p-id="7373"></path><path d="M421.376 809.1136h196.1472c57.2416 0 151.7568-47.2576 151.7568-151.7568S682.6496 412.16 510.8736 412.16 252.416 561.408 252.416 673.0752c0 99.8912 75.8784 136.0384 168.96 136.0384z" fill="#FFFFFF" p-id="7374"></path><path d="M379.6992 295.7312m-81.0496 0a81.0496 81.0496 0 1 0 162.0992 0 81.0496 81.0496 0 1 0-162.0992 0Z" fill="#FFFFFF" p-id="7375"></path><path d="M227.4304 442.4704m-62.2592 0a62.2592 62.2592 0 1 0 124.5184 0 62.2592 62.2592 0 1 0-124.5184 0Z" fill="#FFFFFF" p-id="7376"></path><path d="M636.2624 295.7312m-81.0496 0a81.0496 81.0496 0 1 0 162.0992 0 81.0496 81.0496 0 1 0-162.0992 0Z" fill="#FFFFFF" p-id="7377"></path><path d="M793.6512 442.4704m-62.2592 0a62.2592 62.2592 0 1 0 124.5184 0 62.2592 62.2592 0 1 0-124.5184 0Z" fill="#FFFFFF" p-id="7378"></path></svg>