<svg class="icon" style="width: 1em;height: 1em;vertical-align: middle;fill: currentColor;overflow: hidden;" viewBox="0 0 1024 1024" version="1.1" xmlns="http://www.w3.org/2000/svg" p-id="7813"><path d="M503.7 520.2c38.2 0 73 15.6 98.1 40.8 25.2 25.2 40.8 59.9 40.8 98.1v249.3H364.8V659.1c0-38.2 15.6-73 40.8-98.1 25.1-25.2 59.9-40.8 98.1-40.8z m57.8 81.1c-14.9-14.9-35.3-24.1-57.8-24.1s-43 9.2-57.8 24.1c-14.9 14.9-24.1 35.3-24.1 57.8v192.3h163.8V659.1c0-22.5-9.2-43-24.1-57.8z" fill="#FFD500" p-id="7814"></path><path d="M172.5 354.5h690.9v414.9c0 38.2-15.6 73-40.8 98.1-25.2 25.2-59.9 40.8-98.1 40.8H282.9c-38.2 0-73-15.6-98.1-40.8-25.2-25.2-40.8-59.9-40.8-98.1V354.5h28.5z m633.9 57.1H201v357.9c0 22.5 9.2 43 24.1 57.8 14.8 14.9 35.3 24.1 57.8 24.1h441.6c22.5 0 43-9.2 57.8-24.1 14.9-14.9 24.1-35.3 24.1-57.8V411.6z" fill="#E85D4E" p-id="7815"></path><path d="M149.4 354.5H858c3.1 0 5.8-0.5 7.9-1.5L511.5 196.8c-2.4-1.1-5.1-1.6-7.8-1.6s-5.4 0.5-7.8 1.6L141.4 353.1c2.1 0.9 4.9 1.4 8 1.4zM858 411.6H149.4c-14.1 0-27.4-3.7-38.3-10.2-12.4-7.3-21.7-18.2-26.3-31.4-5-14.6-3.5-29.2 3.5-42.2 6.2-11.4 16.6-20.9 30.2-27l354.3-156.2c9.9-4.3 20.3-6.5 30.8-6.5s20.9 2.2 30.8 6.5l354.3 156.2c13.7 6 24 15.6 30.2 27h0.1c7 12.9 8.5 27.6 3.5 42.2-4.6 13.3-13.9 24.1-26.3 31.4-10.8 6.5-24.1 10.2-38.2 10.2z" fill="#E85D4E" p-id="7816"></path></svg>